<?xml version="1.0" encoding="UTF-8" ?>
<!DOCTYPE svg PUBLIC "-//W3C//DTD SVG 1.1//EN" "http://www.w3.org/Graphics/SVG/1.1/DTD/svg11.dtd">
<svg width="437pt" height="121pt" viewBox="0 0 437 121" version="1.1" xmlns="http://www.w3.org/2000/svg">
<g id="#000000ff">
<path fill="#000000" opacity="1.00" d=" M 66.37 1.48 C 71.86 -0.47 78.97 0.18 82.88 4.90 C 86.98 9.74 85.85 18.02 80.34 21.32 C 74.14 25.13 64.33 24.15 60.49 17.43 C 57.23 11.72 60.08 3.63 66.37 1.48 Z" />
<path fill="#000000" opacity="1.00" d=" M 187.36 1.49 C 192.88 -0.48 200.05 0.19 203.94 4.98 C 207.97 9.82 206.82 18.04 201.33 21.32 C 195.13 25.14 185.30 24.14 181.48 17.40 C 178.24 11.70 181.09 3.63 187.36 1.49 Z" />
<path fill="#000000" opacity="1.00" d=" M 19.11 11.12 C 26.95 3.70 38.47 2.66 48.74 3.11 C 48.76 9.22 48.75 15.33 48.75 21.44 C 44.24 21.51 39.06 21.22 35.47 24.45 C 32.40 27.39 32.14 31.89 31.84 35.87 C 37.48 35.89 43.12 35.86 48.75 35.89 C 48.75 41.86 48.76 47.84 48.75 53.81 C 43.15 53.82 37.55 53.81 31.95 53.82 C 31.93 75.57 31.95 97.31 31.94 119.06 C 24.88 119.07 17.82 119.07 10.76 119.06 C 10.74 97.31 10.76 75.57 10.75 53.83 C 7.16 53.84 3.58 53.79 0.00 53.80 L 0.00 35.88 C 3.57 35.88 7.13 35.87 10.70 35.88 C 10.48 27.04 12.37 17.38 19.11 11.12 Z" />
<path fill="#000000" opacity="1.00" d=" M 104.90 43.96 C 110.00 38.35 117.58 35.70 124.99 35.07 C 134.59 34.21 144.93 35.44 152.94 41.20 C 160.08 46.27 164.53 54.40 166.03 62.93 C 159.44 62.96 152.84 62.93 146.24 62.95 C 145.41 60.28 144.54 57.53 142.69 55.37 C 138.35 49.83 130.19 48.48 123.81 50.82 C 118.33 52.79 116.39 61.09 121.06 64.85 C 125.59 68.46 131.54 69.21 136.95 70.74 C 145.38 72.96 154.77 74.41 161.17 80.87 C 167.32 86.63 168.28 96.21 165.75 103.89 C 162.55 112.91 153.22 118.20 144.14 119.48 C 133.25 120.90 121.41 119.94 111.94 113.94 C 104.27 109.24 99.70 100.74 98.39 92.00 C 105.14 92.00 111.90 91.98 118.65 92.01 C 119.38 97.97 123.93 102.99 129.76 104.36 C 134.59 105.46 140.47 105.97 144.50 102.52 C 148.81 98.71 148.05 90.82 142.69 88.33 C 134.48 84.17 125.04 83.47 116.40 80.47 C 109.72 78.59 103.11 74.33 100.53 67.62 C 97.83 59.73 99.00 50.14 104.90 43.96 Z" />
<path fill="#000000" opacity="1.00" d=" M 260.79 36.83 C 272.30 32.66 286.79 34.25 295.47 43.48 C 302.26 50.45 304.54 60.52 304.60 69.98 C 304.66 86.33 304.60 102.68 304.63 119.03 C 297.61 119.10 290.59 119.05 283.57 119.06 C 283.54 103.67 283.58 88.29 283.55 72.91 C 283.55 67.25 282.08 61.22 277.88 57.18 C 271.99 51.54 262.45 50.98 255.27 54.31 C 248.28 57.65 244.91 65.61 244.86 73.04 C 244.75 88.37 244.85 103.72 244.81 119.06 C 237.73 119.07 230.65 119.07 223.57 119.06 C 223.56 91.33 223.55 63.61 223.57 35.88 C 230.65 35.87 237.73 35.87 244.81 35.88 C 244.85 41.03 244.74 46.17 244.89 51.32 C 248.36 44.86 253.76 39.30 260.79 36.83 Z" />
<path fill="#000000" opacity="1.00" d=" M 354.13 35.24 C 364.68 33.94 375.87 35.52 385.02 41.16 C 394.22 46.70 400.56 56.42 402.60 66.90 C 404.01 74.12 403.98 81.65 402.42 88.85 C 400.21 99.08 393.79 108.39 384.80 113.79 C 374.96 119.81 362.82 121.22 351.60 119.24 C 341.17 117.36 331.34 111.49 325.46 102.58 C 318.99 93.16 317.43 81.16 318.87 70.03 C 319.99 61.16 323.95 52.59 330.36 46.31 C 336.72 40.05 345.34 36.37 354.13 35.24 M 356.42 53.66 C 351.87 54.59 347.74 57.21 344.82 60.79 C 340.72 65.85 339.70 72.65 339.92 78.98 C 340.08 85.27 341.98 91.92 346.82 96.23 C 354.19 103.35 367.01 103.56 374.64 96.72 C 379.56 92.65 381.74 86.19 382.03 79.98 C 382.45 72.89 381.31 65.07 376.24 59.72 C 371.34 54.30 363.49 52.12 356.42 53.66 Z" />
<path fill="#000000" opacity="1.00" d=" M 61.57 35.88 C 68.65 35.87 75.73 35.87 82.81 35.88 C 82.82 63.61 82.82 91.33 82.81 119.05 C 75.73 119.07 68.65 119.06 61.57 119.06 C 61.56 91.33 61.56 63.61 61.57 35.88 Z" />
<path fill="#000000" opacity="1.00" d=" M 182.57 35.88 C 189.65 35.87 196.73 35.87 203.81 35.88 C 203.82 63.61 203.82 91.33 203.81 119.06 C 196.73 119.07 189.65 119.06 182.57 119.06 C 182.56 91.33 182.56 63.61 182.57 35.88 Z" />
<path fill="#000000" opacity="1.00" d=" M 413.31 96.96 C 420.93 96.91 428.56 96.94 436.18 96.94 C 436.19 104.31 436.19 111.69 436.18 119.06 C 428.56 119.06 420.93 119.09 413.31 119.04 C 413.31 111.68 413.31 104.32 413.31 96.96 Z" />
</g>
</svg>
